<?xml version="1.0" encoding="utf-8" ?><!-- created by svgstack.com | Attribution is required. --><svg xmlns="http://www.w3.org/2000/svg" xmlns:xlink="http://www.w3.org/1999/xlink" width="1024" height="1024"><path fill="#6F99A5" transform="scale(2 2)" d="M131.28 107.907C148.924 103.444 166.26 97.6805 183.747 92.6541L318.025 53.2054C331.274 59.4055 356.687 69.6845 368.351 77.5343C361.793 79.2743 355.394 81.3969 348.895 83.3222L204.295 126.353C198.362 128.072 192.501 130.144 186.499 131.603C182.414 130.825 171.635 125.332 167.441 123.523C161.845 121.109 133.907 110.258 131.28 107.907Z"/><path fill="#1E7ABD" transform="scale(2 2)" d="M131.28 107.907C133.907 110.258 161.845 121.109 167.441 123.523C171.635 125.332 182.414 130.825 186.499 131.603L186.485 437.855C186.476 440.94 187.033 451.311 186.499 453.447C178.43 450.905 166.913 444.581 159.073 440.878L140.12 431.973C137.004 430.482 133.744 429.103 130.756 427.372C130.472 423.654 130.742 419.97 130.752 416.25L130.774 109.413C130.775 108.706 130.762 108.396 131.28 107.907Z"/><path fill="#55B6EA" transform="scale(2 2)" d="M186.499 131.603C192.501 130.144 198.362 128.072 204.295 126.353L348.895 83.3222C355.394 81.3969 361.793 79.2743 368.351 77.5343L368.351 127.097C360.982 129.148 353.732 131.504 346.405 133.687L275.239 154.943C266.792 157.375 258.378 160.468 249.83 162.484L249.816 192.92C249.813 197.666 249.438 202.721 249.83 207.427C254.03 206.532 258.215 205.078 262.364 203.933L280.53 198.919C282.882 198.256 286.266 197.69 288.355 196.478C299.236 201.069 309.735 206.979 320.315 212.251C326.012 215.091 333.612 218.101 338.803 221.428C339.139 226.602 338.806 231.948 338.803 237.145L338.803 269.015C317.352 275.795 294.927 282.327 273.305 288.391C265.469 290.589 257.78 293.444 249.83 295.205C249.601 306.589 249.833 318.023 249.832 329.414L249.83 341.599C249.828 343.525 249.649 345.595 249.83 347.498C273.013 338.219 304.992 331.075 329.351 323.999C333.208 325.541 336.928 327.392 340.697 329.133L373.693 344.2C375.941 345.22 378.458 346.131 380.507 347.498L380.507 397.072L186.499 453.447C187.033 451.311 186.476 440.94 186.485 437.855L186.499 131.603Z"/><path fill="#1E7ABD" transform="scale(2 2)" d="M249.83 365.698C258.356 369.816 267.033 373.665 275.414 378.068C267 380.794 258.362 383.335 249.83 385.662C249.995 379.024 249.832 372.341 249.83 365.698Z"/><path fill="#1E7ABD" transform="scale(2 2)" d="M249.83 226.196C258.962 229.872 268.56 234.313 277.111 239.238C270.118 241.888 257.282 245.488 249.83 246.909L249.83 226.196Z"/><path fill="#6F99A5" transform="scale(2 2)" d="M249.83 207.427C254.03 206.532 258.215 205.078 262.364 203.933L280.53 198.919C282.882 198.256 286.266 197.69 288.355 196.478C299.236 201.069 309.735 206.979 320.315 212.251C326.012 215.091 333.612 218.101 338.803 221.428C324.957 225.151 311.193 229.273 297.435 233.31L283.849 237.27C281.631 237.912 279.277 238.445 277.111 239.238C268.56 234.313 258.962 229.872 249.83 226.196C249.816 220.116 250.582 213.415 249.83 207.427Z"/><path fill="#6F99A5" transform="scale(2 2)" d="M329.351 323.999C333.208 325.541 336.928 327.392 340.697 329.133L373.693 344.2C375.941 345.22 378.458 346.131 380.507 347.498C353.353 355.932 325.86 363.264 298.61 371.365L282.14 376.168C279.923 376.811 277.594 377.331 275.414 378.068C267.033 373.665 258.356 369.816 249.83 365.698C249.82 359.779 250.516 353.337 249.83 347.498C273.013 338.219 304.992 331.075 329.351 323.999Z"/></svg> 